<svg id="レイヤー_1" data-name="レイヤー 1" xmlns="http://www.w3.org/2000/svg" viewBox="0 0 473.57 125.51"><defs><style>.cls-1{fill:#078920;}</style></defs><path d="M45.18,87.54l-32-49.13h4.16l32,49.13Zm9.24,0L22.29,38.41h4.16l32,49.13Zm9,0-32-49.13h4.16L67.72,87.54ZM47,131.35V91.82h3.46v39.53Zm7.62,0V91.82h3.47v39.53Zm6.25-62-2.2-3.24L77.2,38.41h4.16Zm1.38,62V91.82h3.47v39.53Zm3.24-54.79-2.08-3.35,22.89-34.8h4.16Zm4.62,7L68,80.37l27.51-42h4.16Z" transform="translate(-13.16 -7.57)"/><path d="M103.09,131.35l33.63-92.94h3.59l-33.52,92.94Zm8.09,0L144.7,38.41h3.81l-33.63,92.94Zm8.09,0,33.64-92.94h3.69L123,131.35ZM132.56,116l1.27-3.46h26.36l1.27,3.46Zm2.78-7.63,1.27-3.46h20.8l1.28,3.46Zm2.77-7.74,1.27-3.47h15.26l1.27,3.47Zm32.71,30.75-22-60.8,1.85-5.2,23.81,66Zm8.09,0-26-72L154.64,54l28,77.33Zm8.09,0L156.84,48l1.85-5.2,32,88.54Z" transform="translate(-13.16 -7.57)"/><path d="M251.62,133.08a49.79,49.79,0,0,1-19.71-3.76A45.59,45.59,0,0,1,216.71,119a46.69,46.69,0,0,1-9.83-15.32,52.7,52.7,0,0,1,0-37.56,46.69,46.69,0,0,1,9.83-15.32,45.59,45.59,0,0,1,15.2-10.34,53.54,53.54,0,0,1,39.42,0,45.69,45.69,0,0,1,15.2,10.34,46.67,46.67,0,0,1,9.82,15.32,52.55,52.55,0,0,1,0,37.56A46.67,46.67,0,0,1,286.53,119a45.69,45.69,0,0,1-15.2,10.34A49.86,49.86,0,0,1,251.62,133.08Zm44.73-48.2a47.49,47.49,0,0,0-3.18-17.4,42.74,42.74,0,0,0-9.07-14.27,42.06,42.06,0,0,0-14.1-9.6,50.55,50.55,0,0,0-36.76,0,42.06,42.06,0,0,0-14.1,9.6,42.77,42.77,0,0,0-9.08,14.27,49.19,49.19,0,0,0,0,34.8,42.77,42.77,0,0,0,9.08,14.27,42.06,42.06,0,0,0,14.1,9.6,50.55,50.55,0,0,0,36.76,0,42.06,42.06,0,0,0,14.1-9.6,42.74,42.74,0,0,0,9.07-14.27A47.45,47.45,0,0,0,296.35,84.88Zm-44.73,40.57a42.11,42.11,0,0,1-16.7-3.18,38.8,38.8,0,0,1-12.84-8.72,38.07,38.07,0,0,1-8.2-12.89,45.41,45.41,0,0,1,0-31.56,38.57,38.57,0,0,1,8.2-12.94,37.8,37.8,0,0,1,12.84-8.73,46.25,46.25,0,0,1,33.4,0,37.66,37.66,0,0,1,12.83,8.73,38.6,38.6,0,0,1,8.21,12.94,45.41,45.41,0,0,1,0,31.56,38.09,38.09,0,0,1-8.21,12.89,38.65,38.65,0,0,1-12.83,8.72A42.17,42.17,0,0,1,251.62,125.45Zm37.1-40.57a38.73,38.73,0,0,0-4.51-18.67,34.2,34.2,0,0,0-12.83-13.35q-8.33-5-19.76-5a38,38,0,0,0-19.71,5A34.15,34.15,0,0,0,219,66.21a38.84,38.84,0,0,0-4.51,18.67A38.92,38.92,0,0,0,219,103.49a33.91,33.91,0,0,0,12.89,13.41,38,38,0,0,0,19.71,5q11.44,0,19.76-5a34,34,0,0,0,12.83-13.41A38.8,38.8,0,0,0,288.72,84.88Zm-37.1,32.94q-10.29,0-17.69-4.45a29.89,29.89,0,0,1-11.33-12,36.85,36.85,0,0,1,0-33.12,30,30,0,0,1,11.33-11.9q7.4-4.45,17.69-4.45t17.68,4.45a30,30,0,0,1,11.33,11.9,36.85,36.85,0,0,1,0,33.12,29.89,29.89,0,0,1-11.33,12Q261.9,117.83,251.62,117.82Zm29.47-32.94a31.41,31.41,0,0,0-3.46-14.74,26.76,26.76,0,0,0-10.06-10.63q-6.58-4-15.95-4a30.35,30.35,0,0,0-15.9,4,26.54,26.54,0,0,0-10.11,10.63,33,33,0,0,0,0,29.48,26.54,26.54,0,0,0,10.11,10.63,30.35,30.35,0,0,0,15.9,4q9.36,0,15.95-4a26.76,26.76,0,0,0,10.06-10.63A31.41,31.41,0,0,0,281.09,84.88Z" transform="translate(-13.16 -7.57)"/><path d="M341.2,87.54l-32-49.13h4.16l32,49.13Zm9.25,0L318.31,38.41h4.16l32,49.13Zm9,0-32-49.13h4.16l32.14,49.13Zm-16.41,43.81V91.82h3.47v39.53Zm7.63,0V91.82h3.47v39.53Zm6.24-62-2.2-3.24,18.5-27.74h4.16Zm1.39,62V91.82h3.46v39.53Zm3.23-54.79-2.08-3.35,22.89-34.8h4.16Zm4.63,7L364,80.37l27.51-42h4.16Z" transform="translate(-13.16 -7.57)"/><path d="M399.11,131.35l33.64-92.94h3.58l-33.52,92.94Zm8.09,0,33.52-92.94h3.82L410.9,131.35Zm8.09,0,33.64-92.94h3.7L419,131.35ZM428.58,116l1.28-3.46h26.35l1.27,3.46Zm2.78-7.63,1.27-3.46h20.81l1.27,3.46Zm2.77-7.74,1.27-3.47h15.26l1.27,3.47Zm32.71,30.75-22-60.8,1.85-5.2,23.81,66Zm8.1,0-26-72L450.66,54l28,77.33Zm8.09,0L452.86,48l1.85-5.2,32,88.54Z" transform="translate(-13.16 -7.57)"/><path class="cls-1" d="M261.24,18c1,9-8.48,16.51-9,16.14s4.3-4.53,5.07-11.86c.85-8.17-3.8-14-2.91-14.56S260.57,11.84,261.24,18Z" transform="translate(-13.16 -7.57)"/><path class="cls-1" d="M242.11,18.49c-.73,9.4,9.3,16.92,9.83,16.52s-4.6-4.59-5.61-12.18c-1.13-8.48,3.53-14.73,2.58-15.23S242.62,12,242.11,18.49Z" transform="translate(-13.16 -7.57)"/><path class="cls-1" d="M235.68,27.2c4.6,7.81,16.64,8.21,16.84,7.61.15-.44-6.15-1.09-11.13-6.51-5.56-6.06-5.33-13.55-6.35-13.43S232.52,21.83,235.68,27.2Z" transform="translate(-13.16 -7.57)"/><path class="cls-1" d="M269.5,27.2c-4.59,7.81-16.64,8.21-16.84,7.61-.14-.44,6.16-1.09,11.14-6.51,5.55-6.06,5.32-13.55,6.34-13.43S272.66,21.83,269.5,27.2Z" transform="translate(-13.16 -7.57)"/></svg>