<svg id="レイヤー_1" data-name="レイヤー 1" xmlns="http://www.w3.org/2000/svg" viewBox="0 0 473.57 125.51"><defs><style>.cls-1{fill:#eb3636;}.cls-2{fill:#078920;}</style></defs><path d="M45.45,87.33l-32-49.12h4.16l32,49.12Zm9.25,0L22.56,38.21h4.16l32,49.12Zm9,0-32-49.12h4.16L68,87.33ZM47.3,131.14V91.61h3.47v39.53Zm7.63,0V91.61H58.4v39.53Zm6.24-62L59,66l18.5-27.74h4.16Zm1.39,62V91.61H66v39.53Zm3.23-54.79L63.71,73,86.6,38.21h4.16Zm4.63,7.05-2.2-3.23,27.51-42h4.16Z" transform="translate(-13.43 -7.36)"/><path d="M103.36,131.14,137,38.21h3.58l-33.52,92.93Zm8.09,0L145,38.21h3.82l-33.64,92.93Zm8.09,0,33.64-92.93h3.7l-33.64,92.93Zm13.3-15.37,1.27-3.47h26.35l1.27,3.47Zm2.77-7.63,1.27-3.47h20.81l1.27,3.47Zm2.77-7.75,1.28-3.46h15.25l1.27,3.46Zm32.72,30.75-22-60.8,1.85-5.2,23.81,66Zm8.09,0-26-72,1.73-5.32,28,77.33Zm8.09,0L157.11,47.8,159,42.6l32,88.54Z" transform="translate(-13.43 -7.36)"/><path class="cls-1" d="M251.89,132.87a50,50,0,0,1-19.71-3.75A45.86,45.86,0,0,1,217,118.77a46.46,46.46,0,0,1-9.82-15.31,52.58,52.58,0,0,1,0-37.57A46.61,46.61,0,0,1,217,50.57a45.69,45.69,0,0,1,15.2-10.34,53.54,53.54,0,0,1,39.42,0,45.69,45.69,0,0,1,15.2,10.34,46.8,46.8,0,0,1,9.83,15.32,52.72,52.72,0,0,1,0,37.57,46.65,46.65,0,0,1-9.83,15.31,45.86,45.86,0,0,1-15.2,10.35A50,50,0,0,1,251.89,132.87Zm44.74-48.2a47.41,47.41,0,0,0-3.19-17.39A42.63,42.63,0,0,0,284.37,53a42,42,0,0,0-14.1-9.59,50.41,50.41,0,0,0-36.76,0A42,42,0,0,0,219.41,53a42.79,42.79,0,0,0-9.07,14.28,49.17,49.17,0,0,0,0,34.79,42.89,42.89,0,0,0,9.07,14.28,42,42,0,0,0,14.1,9.59,50.41,50.41,0,0,0,36.76,0,42,42,0,0,0,14.1-9.59,42.73,42.73,0,0,0,9.07-14.28A47.42,47.42,0,0,0,296.63,84.67Zm-44.74,40.57a42.14,42.14,0,0,1-16.7-3.17,38.83,38.83,0,0,1-12.83-8.73,38,38,0,0,1-8.21-12.89,45.38,45.38,0,0,1,0-31.55,38.64,38.64,0,0,1,8.21-13,37.66,37.66,0,0,1,12.83-8.73,46.25,46.25,0,0,1,33.4,0A37.66,37.66,0,0,1,281.42,56a38.49,38.49,0,0,1,8.21,13,45.38,45.38,0,0,1,0,31.55,37.84,37.84,0,0,1-8.21,12.89,38.83,38.83,0,0,1-12.83,8.73A42.14,42.14,0,0,1,251.89,125.24ZM289,84.67A38.8,38.8,0,0,0,284.49,66a34.14,34.14,0,0,0-12.83-13.35q-8.32-5-19.77-5a37.88,37.88,0,0,0-19.71,5A34,34,0,0,0,219.3,66a38.69,38.69,0,0,0-4.51,18.66,38.77,38.77,0,0,0,4.51,18.61,33.88,33.88,0,0,0,12.88,13.41,37.87,37.87,0,0,0,19.71,5q11.44,0,19.77-5a34,34,0,0,0,12.83-13.41A38.89,38.89,0,0,0,289,84.67Zm-37.11,33a33.71,33.71,0,0,1-17.68-4.45,29.91,29.91,0,0,1-11.33-12,36.83,36.83,0,0,1,0-33.11,30,30,0,0,1,11.33-11.91q7.39-4.45,17.68-4.45t17.69,4.45A30.06,30.06,0,0,1,280.9,68.09a36.83,36.83,0,0,1,0,33.11,30,30,0,0,1-11.32,12A33.77,33.77,0,0,1,251.89,117.62Zm29.48-32.95a31.37,31.37,0,0,0-3.47-14.73A26.71,26.71,0,0,0,267.84,59.3q-6.58-4-15.95-4a30.29,30.29,0,0,0-15.89,4,26.59,26.59,0,0,0-10.12,10.64,33.11,33.11,0,0,0,0,29.47A26.59,26.59,0,0,0,236,110.05a30.38,30.38,0,0,0,15.89,4q9.36,0,15.95-4A26.71,26.71,0,0,0,277.9,99.41,31.39,31.39,0,0,0,281.37,84.67Z" transform="translate(-13.43 -7.36)"/><path d="M341.47,87.33l-32-49.12h4.17l32,49.12Zm9.25,0L318.59,38.21h4.16l32,49.12Zm9,0-32-49.12h4.16L364,87.33Zm-16.42,43.81V91.61h3.47v39.53Zm7.63,0V91.61h3.47v39.53Zm6.24-62L355,66l18.49-27.74h4.16Zm1.39,62V91.61h3.47v39.53Zm3.24-54.79L359.74,73l22.88-34.79h4.16Zm4.62,7.05-2.2-3.23,27.51-42h4.17Z" transform="translate(-13.43 -7.36)"/><path d="M399.38,131.14,433,38.21h3.58l-33.52,92.93Zm8.09,0L441,38.21h3.82l-33.64,92.93Zm8.1,0L449.2,38.21h3.7l-33.64,92.93Zm13.29-15.37,1.27-3.47h26.35l1.28,3.47Zm2.77-7.63,1.27-3.47h20.81l1.27,3.47Zm2.78-7.75,1.27-3.46h15.26l1.27,3.46Zm32.71,30.75-22-60.8,1.85-5.2,23.81,66Zm8.09,0-26-72,1.74-5.32,28,77.33Zm8.09,0L453.13,47.8,455,42.6l32,88.54Z" transform="translate(-13.43 -7.36)"/><path class="cls-2" d="M261.51,17.83c1,9-8.47,16.51-9,16.15s4.29-4.54,5.06-11.87c.85-8.17-3.8-14-2.9-14.55S260.85,11.63,261.51,17.83Z" transform="translate(-13.43 -7.36)"/><path class="cls-2" d="M242.39,18.28c-.74,9.41,9.3,16.92,9.83,16.53s-4.6-4.59-5.62-12.19c-1.13-8.48,3.53-14.73,2.59-15.23S242.89,11.82,242.39,18.28Z" transform="translate(-13.43 -7.36)"/><path class="cls-2" d="M236,27c4.6,7.82,16.64,8.21,16.84,7.61.15-.44-6.15-1.08-11.13-6.51-5.56-6.06-5.32-13.55-6.34-13.42S232.79,21.62,236,27Z" transform="translate(-13.43 -7.36)"/><path class="cls-2" d="M269.78,27c-4.6,7.82-16.64,8.21-16.84,7.61-.15-.44,6.15-1.08,11.13-6.51,5.56-6.06,5.32-13.55,6.34-13.42S272.94,21.62,269.78,27Z" transform="translate(-13.43 -7.36)"/></svg>